<svg id="visual" viewBox="0 0 960 540" width="960" height="540" xmlns="http://www.w3.org/2000/svg" xmlns:xlink="http://www.w3.org/1999/xlink" version="1.1"><path d="M0 303L74 303L74 270L148 270L148 314L222 314L222 267L295 267L295 332L369 332L369 318L443 318L443 338L517 338L517 338L591 338L591 316L665 316L665 334L738 334L738 271L812 271L812 316L886 316L886 295L960 295L960 316L960 0L960 0L886 0L886 0L812 0L812 0L738 0L738 0L665 0L665 0L591 0L591 0L517 0L517 0L443 0L443 0L369 0L369 0L295 0L295 0L222 0L222 0L148 0L148 0L74 0L74 0L0 0Z" fill="#ffedd5"></path><path d="M0 294L74 294L74 293L148 293L148 253L222 253L222 283L295 283L295 252L369 252L369 245L443 245L443 307L517 307L517 276L591 276L591 307L665 307L665 288L738 288L738 255L812 255L812 260L886 260L886 240L960 240L960 256L960 0L960 0L886 0L886 0L812 0L812 0L738 0L738 0L665 0L665 0L591 0L591 0L517 0L517 0L443 0L443 0L369 0L369 0L295 0L295 0L222 0L222 0L148 0L148 0L74 0L74 0L0 0Z" fill="#ffe9cc"></path><path d="M0 276L74 276L74 267L148 267L148 250L222 250L222 242L295 242L295 267L369 267L369 222L443 222L443 234L517 234L517 282L591 282L591 269L665 269L665 265L738 265L738 259L812 259L812 249L886 249L886 277L960 277L960 239L960 0L960 0L886 0L886 0L812 0L812 0L738 0L738 0L665 0L665 0L591 0L591 0L517 0L517 0L443 0L443 0L369 0L369 0L295 0L295 0L222 0L222 0L148 0L148 0L74 0L74 0L0 0Z" fill="#ffe4c2"></path><path d="M0 197L74 197L74 202L148 202L148 252L222 252L222 222L295 222L295 255L369 255L369 224L443 224L443 256L517 256L517 244L591 244L591 198L665 198L665 237L738 237L738 197L812 197L812 248L886 248L886 233L960 233L960 246L960 0L960 0L886 0L886 0L812 0L812 0L738 0L738 0L665 0L665 0L591 0L591 0L517 0L517 0L443 0L443 0L369 0L369 0L295 0L295 0L222 0L222 0L148 0L148 0L74 0L74 0L0 0Z" fill="#fee0b9"></path><path d="M0 208L74 208L74 183L148 183L148 218L222 218L222 224L295 224L295 197L369 197L369 213L443 213L443 185L517 185L517 189L591 189L591 213L665 213L665 175L738 175L738 216L812 216L812 230L886 230L886 188L960 188L960 190L960 0L960 0L886 0L886 0L812 0L812 0L738 0L738 0L665 0L665 0L591 0L591 0L517 0L517 0L443 0L443 0L369 0L369 0L295 0L295 0L222 0L222 0L148 0L148 0L74 0L74 0L0 0Z" fill="#fedbb0"></path><path d="M0 153L74 153L74 191L148 191L148 150L222 150L222 149L295 149L295 194L369 194L369 194L443 194L443 197L517 197L517 200L591 200L591 190L665 190L665 152L738 152L738 163L812 163L812 162L886 162L886 161L960 161L960 192L960 0L960 0L886 0L886 0L812 0L812 0L738 0L738 0L665 0L665 0L591 0L591 0L517 0L517 0L443 0L443 0L369 0L369 0L295 0L295 0L222 0L222 0L148 0L148 0L74 0L74 0L0 0Z" fill="#fed6a7"></path><path d="M0 171L74 171L74 130L148 130L148 157L222 157L222 140L295 140L295 128L369 128L369 167L443 167L443 173L517 173L517 166L591 166L591 155L665 155L665 169L738 169L738 146L812 146L812 172L886 172L886 153L960 153L960 136L960 0L960 0L886 0L886 0L812 0L812 0L738 0L738 0L665 0L665 0L591 0L591 0L517 0L517 0L443 0L443 0L369 0L369 0L295 0L295 0L222 0L222 0L148 0L148 0L74 0L74 0L0 0Z" fill="#fed29f"></path><path d="M0 146L74 146L74 109L148 109L148 120L222 120L222 140L295 140L295 140L369 140L369 142L443 142L443 124L517 124L517 108L591 108L591 137L665 137L665 107L738 107L738 132L812 132L812 144L886 144L886 145L960 145L960 140L960 0L960 0L886 0L886 0L812 0L812 0L738 0L738 0L665 0L665 0L591 0L591 0L517 0L517 0L443 0L443 0L369 0L369 0L295 0L295 0L222 0L222 0L148 0L148 0L74 0L74 0L0 0Z" fill="#fecd96"></path><path d="M0 91L74 91L74 86L148 86L148 92L222 92L222 93L295 93L295 112L369 112L369 99L443 99L443 96L517 96L517 96L591 96L591 121L665 121L665 96L738 96L738 83L812 83L812 110L886 110L886 99L960 99L960 112L960 0L960 0L886 0L886 0L812 0L812 0L738 0L738 0L665 0L665 0L591 0L591 0L517 0L517 0L443 0L443 0L369 0L369 0L295 0L295 0L222 0L222 0L148 0L148 0L74 0L74 0L0 0Z" fill="#fec88d"></path><path d="M0 69L74 69L74 94L148 94L148 69L222 69L222 66L295 66L295 94L369 94L369 94L443 94L443 72L517 72L517 85L591 85L591 71L665 71L665 59L738 59L738 86L812 86L812 66L886 66L886 78L960 78L960 65L960 0L960 0L886 0L886 0L812 0L812 0L738 0L738 0L665 0L665 0L591 0L591 0L517 0L517 0L443 0L443 0L369 0L369 0L295 0L295 0L222 0L222 0L148 0L148 0L74 0L74 0L0 0Z" fill="#fdc485"></path><path d="M0 45L74 45L74 61L148 61L148 52L222 52L222 67L295 67L295 64L369 64L369 42L443 42L443 63L517 63L517 39L591 39L591 42L665 42L665 45L738 45L738 61L812 61L812 48L886 48L886 48L960 48L960 45L960 0L960 0L886 0L886 0L812 0L812 0L738 0L738 0L665 0L665 0L591 0L591 0L517 0L517 0L443 0L443 0L369 0L369 0L295 0L295 0L222 0L222 0L148 0L148 0L74 0L74 0L0 0Z" fill="#fdbf7c"></path><path d="M0 33L74 33L74 41L148 41L148 21L222 21L222 37L295 37L295 37L369 37L369 37L443 37L443 17L517 17L517 31L591 31L591 33L665 33L665 30L738 30L738 31L812 31L812 33L886 33L886 19L960 19L960 32L960 0L960 0L886 0L886 0L812 0L812 0L738 0L738 0L665 0L665 0L591 0L591 0L517 0L517 0L443 0L443 0L369 0L369 0L295 0L295 0L222 0L222 0L148 0L148 0L74 0L74 0L0 0Z" fill="#fdba74"></path></svg>