<svg id="visual" viewBox="0 0 960 540" width="960" height="540" xmlns="http://www.w3.org/2000/svg" xmlns:xlink="http://www.w3.org/1999/xlink" version="1.1"><path d="M0 284L74 284L74 300L148 300L148 313L222 313L222 335L295 335L295 295L369 295L369 275L443 275L443 297L517 297L517 290L591 290L591 334L665 334L665 267L738 267L738 292L812 292L812 323L886 323L886 324L960 324L960 262L960 0L960 0L886 0L886 0L812 0L812 0L738 0L738 0L665 0L665 0L591 0L591 0L517 0L517 0L443 0L443 0L369 0L369 0L295 0L295 0L222 0L222 0L148 0L148 0L74 0L74 0L0 0Z" fill="#ffedd5"></path><path d="M0 271L74 271L74 290L148 290L148 298L222 298L222 259L295 259L295 243L369 243L369 270L443 270L443 263L517 263L517 304L591 304L591 283L665 283L665 285L738 285L738 250L812 250L812 271L886 271L886 283L960 283L960 281L960 0L960 0L886 0L886 0L812 0L812 0L738 0L738 0L665 0L665 0L591 0L591 0L517 0L517 0L443 0L443 0L369 0L369 0L295 0L295 0L222 0L222 0L148 0L148 0L74 0L74 0L0 0Z" fill="#ffebd1"></path><path d="M0 277L74 277L74 228L148 228L148 248L222 248L222 271L295 271L295 246L369 246L369 255L443 255L443 226L517 226L517 245L591 245L591 232L665 232L665 258L738 258L738 236L812 236L812 280L886 280L886 265L960 265L960 240L960 0L960 0L886 0L886 0L812 0L812 0L738 0L738 0L665 0L665 0L591 0L591 0L517 0L517 0L443 0L443 0L369 0L369 0L295 0L295 0L222 0L222 0L148 0L148 0L74 0L74 0L0 0Z" fill="#ffe9cd"></path><path d="M0 227L74 227L74 197L148 197L148 208L222 208L222 254L295 254L295 226L369 226L369 248L443 248L443 223L517 223L517 246L591 246L591 246L665 246L665 197L738 197L738 207L812 207L812 241L886 241L886 225L960 225L960 238L960 0L960 0L886 0L886 0L812 0L812 0L738 0L738 0L665 0L665 0L591 0L591 0L517 0L517 0L443 0L443 0L369 0L369 0L295 0L295 0L222 0L222 0L148 0L148 0L74 0L74 0L0 0Z" fill="#fee7c9"></path><path d="M0 194L74 194L74 217L148 217L148 175L222 175L222 222L295 222L295 215L369 215L369 204L443 204L443 179L517 179L517 213L591 213L591 171L665 171L665 221L738 221L738 192L812 192L812 172L886 172L886 228L960 228L960 191L960 0L960 0L886 0L886 0L812 0L812 0L738 0L738 0L665 0L665 0L591 0L591 0L517 0L517 0L443 0L443 0L369 0L369 0L295 0L295 0L222 0L222 0L148 0L148 0L74 0L74 0L0 0Z" fill="#fee5c5"></path><path d="M0 197L74 197L74 159L148 159L148 161L222 161L222 155L295 155L295 198L369 198L369 150L443 150L443 163L517 163L517 172L591 172L591 194L665 194L665 184L738 184L738 195L812 195L812 152L886 152L886 157L960 157L960 156L960 0L960 0L886 0L886 0L812 0L812 0L738 0L738 0L665 0L665 0L591 0L591 0L517 0L517 0L443 0L443 0L369 0L369 0L295 0L295 0L222 0L222 0L148 0L148 0L74 0L74 0L0 0Z" fill="#fee3c1"></path><path d="M0 157L74 157L74 139L148 139L148 156L222 156L222 159L295 159L295 156L369 156L369 146L443 146L443 148L517 148L517 155L591 155L591 150L665 150L665 161L738 161L738 160L812 160L812 177L886 177L886 144L960 144L960 154L960 0L960 0L886 0L886 0L812 0L812 0L738 0L738 0L665 0L665 0L591 0L591 0L517 0L517 0L443 0L443 0L369 0L369 0L295 0L295 0L222 0L222 0L148 0L148 0L74 0L74 0L0 0Z" fill="#fee1bd"></path><path d="M0 135L74 135L74 139L148 139L148 115L222 115L222 111L295 111L295 150L369 150L369 106L443 106L443 112L517 112L517 128L591 128L591 129L665 129L665 138L738 138L738 110L812 110L812 127L886 127L886 109L960 109L960 125L960 0L960 0L886 0L886 0L812 0L812 0L738 0L738 0L665 0L665 0L591 0L591 0L517 0L517 0L443 0L443 0L369 0L369 0L295 0L295 0L222 0L222 0L148 0L148 0L74 0L74 0L0 0Z" fill="#fedfb9"></path><path d="M0 90L74 90L74 111L148 111L148 91L222 91L222 118L295 118L295 88L369 88L369 84L443 84L443 99L517 99L517 108L591 108L591 119L665 119L665 100L738 100L738 90L812 90L812 103L886 103L886 103L960 103L960 123L960 0L960 0L886 0L886 0L812 0L812 0L738 0L738 0L665 0L665 0L591 0L591 0L517 0L517 0L443 0L443 0L369 0L369 0L295 0L295 0L222 0L222 0L148 0L148 0L74 0L74 0L0 0Z" fill="#feddb5"></path><path d="M0 86L74 86L74 60L148 60L148 90L222 90L222 86L295 86L295 79L369 79L369 62L443 62L443 65L517 65L517 69L591 69L591 71L665 71L665 92L738 92L738 83L812 83L812 78L886 78L886 91L960 91L960 82L960 0L960 0L886 0L886 0L812 0L812 0L738 0L738 0L665 0L665 0L591 0L591 0L517 0L517 0L443 0L443 0L369 0L369 0L295 0L295 0L222 0L222 0L148 0L148 0L74 0L74 0L0 0Z" fill="#fedbb2"></path><path d="M0 55L74 55L74 37L148 37L148 60L222 60L222 42L295 42L295 42L369 42L369 41L443 41L443 63L517 63L517 54L591 54L591 64L665 64L665 49L738 49L738 62L812 62L812 38L886 38L886 50L960 50L960 45L960 0L960 0L886 0L886 0L812 0L812 0L738 0L738 0L665 0L665 0L591 0L591 0L517 0L517 0L443 0L443 0L369 0L369 0L295 0L295 0L222 0L222 0L148 0L148 0L74 0L74 0L0 0Z" fill="#fed9ae"></path><path d="M0 14L74 14L74 28L148 28L148 16L222 16L222 40L295 40L295 32L369 32L369 24L443 24L443 29L517 29L517 25L591 25L591 27L665 27L665 15L738 15L738 22L812 22L812 33L886 33L886 16L960 16L960 27L960 0L960 0L886 0L886 0L812 0L812 0L738 0L738 0L665 0L665 0L591 0L591 0L517 0L517 0L443 0L443 0L369 0L369 0L295 0L295 0L222 0L222 0L148 0L148 0L74 0L74 0L0 0Z" fill="#fed7aa"></path></svg>